 <svg version="1.0" xmlns="http://www.w3.org/2000/svg" width="700.000000pt" height="700.000000pt" viewBox="0 0 700.000000 700.000000" preserveAspectRatio="xMidYMid meet">
<metadata>
Created by potrace 1.12, written by Peter Selinger 2001-2015
</metadata>
<g transform="translate(0.000000,700.000000) scale(0.100000,-0.100000)" fill="#000000" stroke="none">
<path d="M1905 4852 c-199 -14 -343 -123 -412 -311 l-23 -64 0 -1001 c1 -871
3 -1006 16 -1041 8 -22 18 -49 21 -60 10 -32 72 -117 112 -153 39 -37 88 -64
166 -96 49 -20 74 -20 1505 -23 l1454 -3 69 21 c92 28 145 59 198 116 55 59
83 107 109 184 19 54 20 86 20 451 0 216 4 399 9 407 8 12 29 12 137 2 71 -6
210 -16 309 -21 99 -6 252 -17 339 -25 241 -23 335 -20 401 9 70 33 121 79
151 137 19 39 24 63 24 129 0 132 -52 220 -161 275 -47 23 -60 25 -197 25 -81
0 -185 -5 -232 -10 -47 -5 -188 -14 -315 -20 -126 -5 -277 -15 -334 -22 -97
-10 -105 -10 -118 7 -10 15 -13 91 -13 372 0 377 3 354 -53 473 -52 111 -168
200 -297 229 -41 9 -401 12 -1450 14 -767 1 -1413 1 -1435 -1z m2585 -111
l305 -7 50 -28 c63 -37 101 -71 131 -118 57 -89 57 -92 63 -520 5 -306 9 -400
19 -410 14 -14 114 -14 247 2 44 5 150 12 235 15 85 4 225 13 310 21 85 7 215
14 288 15 127 1 134 0 172 -25 86 -57 122 -167 82 -245 -28 -53 -55 -79 -108
-102 -40 -18 -53 -19 -176 -9 -73 5 -207 15 -298 20 -91 6 -246 17 -345 25
-214 18 -400 23 -412 12 -4 -5 -10 -212 -13 -460 l-5 -452 -27 -55 c-29 -60
-95 -132 -143 -158 -16 -9 -55 -24 -85 -34 -52 -17 -144 -18 -1481 -18 -1394
0 -1427 0 -1483 20 -99 34 -164 91 -217 190 l-24 45 -3 1003 -2 1002 22 53
c30 71 67 117 131 161 98 67 34 64 1307 64 635 0 1292 -3 1460 -7z"></path>
<path d="M3515 4259 c-55 -5 -110 -14 -123 -19 -13 -6 -148 -10 -322 -10 -286
0 -302 -1 -350 -22 -27 -12 -50 -27 -50 -32 1 -21 46 -43 98 -48 29 -3 60 -12
70 -22 13 -11 37 -16 81 -16 34 0 74 -6 89 -14 19 -10 79 -15 206 -17 l179 -4
27 50 27 50 69 -3 c163 -6 262 -5 305 2 31 6 49 5 53 -3 11 -18 41 -13 63 12
32 33 32 56 1 80 -24 18 -44 20 -175 23 -81 1 -193 -2 -248 -7z"></path>
<path d="M2640 4145 c0 -8 5 -15 10 -15 6 0 10 7 10 15 0 8 -4 15 -10 15 -5 0
-10 -7 -10 -15z"></path>
<path d="M2388 3752 c26 -17 62 -77 62 -104 0 -33 -24 -48 -77 -48 -46 0 -63
14 -63 53 0 38 -22 31 -34 -11 -5 -20 -17 -33 -32 -36 -30 -8 -31 -32 -3 -41
16 -5 19 -12 15 -28 -3 -12 -11 -79 -17 -149 -7 -93 -7 -133 1 -148 23 -42 32
-14 35 112 6 205 25 241 117 222 48 -10 46 2 32 -146 -7 -86 1 -108 42 -108
31 0 39 17 14 32 -24 15 -27 76 -8 159 10 43 17 54 40 63 34 13 35 20 3 34
-19 9 -25 19 -25 42 0 17 -9 39 -20 50 -11 11 -20 24 -20 30 0 12 -34 30 -57
30 -13 0 -14 -3 -5 -8z"></path>
<path d="M2323 3725 c-8 -22 6 -33 17 -15 13 20 12 30 0 30 -6 0 -13 -7 -17
-15z"></path>
<path d="M4167 3733 c-4 -3 -7 -45 -7 -92 -1 -47 -7 -113 -15 -146 -26 -106
-16 -183 20 -168 10 3 12 19 8 56 -3 30 2 85 11 129 20 97 22 228 3 228 -8 0
-17 -3 -20 -7z"></path>
<path d="M4319 3738 c0 -2 -2 -40 -4 -84 -2 -45 -9 -132 -15 -193 -10 -89 -10
-114 0 -126 25 -30 34 -9 36 91 2 54 11 140 20 191 18 99 15 123 -16 123 -11
0 -20 -1 -21 -2z"></path>
<path d="M1727 3703 c-3 -10 -5 -49 -6 -86 -1 -38 -8 -105 -16 -150 -21 -116
-20 -134 8 -139 49 -10 170 -3 174 10 4 9 -13 12 -60 12 -44 0 -68 5 -77 15
-14 16 -7 123 16 245 8 41 14 76 14 77 0 6 -33 33 -40 33 -5 0 -11 -8 -13 -17z"></path>
<path d="M3717 3713 c-4 -3 -7 -31 -7 -62 0 -31 -7 -87 -15 -126 -8 -38 -15
-98 -15 -133 0 -60 1 -63 22 -60 20 3 22 8 19 60 -3 61 10 98 35 98 8 0 20
-13 25 -30 6 -16 15 -30 19 -30 4 0 11 -12 14 -26 10 -37 47 -84 67 -84 31 0
32 21 4 50 -46 48 -85 127 -85 173 0 29 -1 29 -19 13 -29 -26 -44 0 -35 63 9
71 -5 118 -29 94z"></path>
<path d="M3996 3705 c-7 -20 21 -32 37 -16 9 9 8 14 -3 21 -21 13 -27 12 -34
-5z"></path>
<path d="M3869 3673 c-13 -21 -26 -40 -29 -43 -11 -8 -31 -50 -24 -50 11 0
104 105 104 118 0 25 -29 11 -51 -25z"></path>
<path d="M2060 3620 c0 -5 7 -10 15 -10 22 0 48 -45 40 -72 -4 -13 -19 -33
-33 -45 -26 -22 -26 -23 -5 -23 24 0 82 55 84 80 4 50 -22 80 -68 80 -18 0
-33 -4 -33 -10z"></path>
<path d="M2700 3621 c0 -5 11 -12 24 -15 13 -3 34 -22 46 -41 22 -36 23 -83 4
-174 -9 -43 7 -35 35 19 14 28 21 59 21 98 0 53 -3 61 -33 90 -23 22 -43 32
-65 32 -18 0 -32 -4 -32 -9z"></path>
<path d="M3276 3621 c-3 -5 5 -12 18 -15 42 -10 46 -98 5 -109 -24 -6 -25 -27
-1 -27 49 1 91 102 57 140 -18 20 -69 27 -79 11z"></path>
<path d="M4545 3620 c-3 -5 3 -10 15 -10 42 0 51 -102 9 -115 -25 -8 -25 -25
1 -25 22 0 80 72 80 100 0 39 -86 81 -105 50z"></path>
<path d="M4852 3607 c-28 -30 -28 -37 2 -37 29 0 49 22 40 44 -8 22 -17 20
-42 -7z"></path>
<path d="M3461 3484 c-11 -119 -11 -139 2 -152 24 -23 34 -7 34 55 1 32 6 71
13 88 16 42 -4 145 -28 145 -4 0 -14 -61 -21 -136z"></path>
<path d="M3563 3585 c-18 -19 -33 -37 -33 -40 0 -12 31 -4 36 10 4 8 14 15 24
15 21 0 44 25 35 40 -11 18 -29 11 -62 -25z"></path>
<path d="M3997 3613 c-3 -4 -8 -69 -12 -144 -6 -119 -5 -137 9 -142 8 -3 17
-3 20 1 2 4 5 70 7 146 3 99 1 140 -8 143 -6 2 -13 0 -16 -4z"></path>
<path d="M4736 3598 c-3 -13 -7 -75 -11 -139 -5 -94 -3 -118 9 -128 20 -17 30
2 31 59 2 47 23 112 43 132 17 17 15 38 -3 38 -8 0 -15 6 -15 13 0 14 -31 47
-43 47 -4 0 -9 -10 -11 -22z"></path>
<path d="M2886 3602 c-3 -5 8 -36 25 -70 16 -34 29 -72 30 -84 1 -38 35 -123
49 -123 19 0 54 51 47 69 -4 9 -17 16 -30 16 -20 0 -24 7 -34 63 -15 86 -39
137 -63 137 -10 0 -21 -4 -24 -8z"></path>
<path d="M3071 3591 c-17 -30 -26 -141 -13 -141 7 0 14 12 17 28 3 15 10 41
16 57 15 42 16 67 2 72 -6 2 -16 -5 -22 -16z"></path>
<path d="M2004 3585 c-9 -22 1 -29 15 -11 8 10 9 16 1 21 -5 3 -13 -1 -16 -10z"></path>
<path d="M4486 3585 c-3 -9 0 -15 9 -15 8 0 15 7 15 15 0 8 -4 15 -9 15 -5 0
-11 -7 -15 -15z"></path>
<path d="M6101 3573 c-46 -58 -34 -123 27 -149 41 -17 61 -12 102 23 39 32 41
79 4 122 -21 26 -33 31 -69 31 -35 0 -48 -5 -64 -27z"></path>
<path d="M2616 3539 c-52 -100 -24 -218 52 -219 29 0 28 6 -8 47 -25 28 -30
42 -30 87 0 30 7 70 15 89 17 42 18 47 6 47 -4 0 -20 -23 -35 -51z"></path>
<path d="M3190 3543 c-6 -16 -15 -36 -20 -45 -30 -53 3 -163 52 -174 41 -9 46
2 14 31 -23 22 -27 31 -22 58 4 18 6 39 5 47 0 8 -1 36 -1 63 1 52 -13 62 -28
20z"></path>
<path d="M1973 3538 c-34 -40 -22 -187 17 -208 45 -24 71 4 29 31 -14 10 -21
24 -20 44 2 73 0 106 -7 126 -7 17 -10 18 -19 7z"></path>
<path d="M4449 3528 c-7 -13 -13 -51 -13 -85 -1 -69 23 -115 63 -121 27 -4 28
18 0 41 -16 14 -20 28 -18 60 7 114 -6 154 -32 105z"></path>
<path d="M3323 3353 c-18 -6 -16 -23 1 -23 17 0 30 16 19 23 -5 2 -14 2 -20 0z"></path>
<path d="M4587 3353 c-12 -11 -8 -23 8 -23 8 0 15 7 15 15 0 16 -12 20 -23 8z"></path>
<path d="M2100 3340 c0 -5 7 -10 15 -10 8 0 15 5 15 10 0 6 -7 10 -15 10 -8 0
-15 -4 -15 -10z"></path>
<path d="M2730 3340 c0 -5 4 -10 9 -10 6 0 13 5 16 10 3 6 -1 10 -9 10 -9 0
-16 -4 -16 -10z"></path>
</g>
</svg>